<svg width="284" height="477" viewBox="0 0 284 477" fill="none" xmlns="http://www.w3.org/2000/svg">
<mask id="mask0" mask-type="alpha" maskUnits="userSpaceOnUse" x="0" y="0" width="284" height="568">
<rect y="0.015564" width="283.582" height="567.706" fill="#C4C4C4"/>
</mask>
<g mask="url(#mask0)">
<path fill-rule="evenodd" clip-rule="evenodd" d="M-13.0816 528.9C-5.96556 501.695 16.9779 517.377 31.474 510.168C28.8219 533.021 9.26728 549.432 -11.1961 534.876C-2.39114 532.73 5.34323 530.889 13.3991 524.213C-0.94133 527.098 -7.0572 526.019 -13.0816 528.9ZM-22.2133 494.827C-15.0962 467.622 7.84629 483.304 22.3434 476.095C19.6897 498.949 0.135651 515.359 -20.3271 500.802C-11.5234 498.658 -3.78842 496.816 4.26742 490.14C-10.0736 493.026 -16.1882 491.945 -22.2133 494.827ZM-16.8861 459.884C-9.76901 432.679 13.1735 448.361 27.6702 441.151C25.0175 464.005 5.46181 480.415 -14.9999 465.859C-6.1956 463.714 1.53941 461.872 9.5952 455.196C-4.74581 458.081 -10.861 457.002 -16.8861 459.884ZM-47.564 430.539C-46.0185 408.669 -26.1851 417.389 -16.114 409.783C-14.8631 427.676 -27.4892 443.059 -45.2612 434.846C-38.8217 431.937 -33.1604 429.414 -27.9465 423.141C-38.5209 427.413 -43.3609 427.465 -47.564 430.539ZM-43.1483 480.726C-48.3955 478.285 -53.6842 479.276 -66.1361 476.909C-59.0956 482.619 -52.3762 484.143 -44.7266 485.921C-62.3228 498.723 -79.4182 484.683 -81.9275 464.906C-69.3011 471.019 -49.566 457.219 -43.1483 480.726ZM-56.6121 449.379C-60.7466 446.214 -65.5848 446.056 -76.0619 441.554C-70.9877 447.939 -65.3828 450.586 -59.01 453.635C-76.9566 461.457 -89.2416 445.798 -87.5968 427.938C-77.6952 435.765 -57.6761 427.483 -56.6121 449.379ZM-57.1176 422.223C-56.1591 417.105 -58.2013 412.717 -58.9116 401.335C-62.32 408.745 -62.1528 414.941 -61.9962 422.003C-77.0764 409.518 -68.6474 391.49 -51.9679 384.896C-54.4828 397.263 -38.0574 411.392 -57.1176 422.223ZM-32.9524 404.06C-28.9204 400.766 -27.651 396.095 -20.8542 386.937C-28.2381 390.402 -32.1056 395.247 -36.5408 400.745C-40.0147 381.479 -21.9467 373.134 -4.94751 378.851C-14.8438 386.682 -11.3996 408.072 -32.9524 404.06ZM179.422 154.065C174.237 154.551 170.58 157.722 159.832 161.537C167.894 162.775 173.806 160.909 180.553 158.816C172.698 176.748 153.046 173.606 142.118 159.385C154.701 158.399 163.764 138.721 179.422 154.065ZM186.518 150.595C172.795 133.499 193.273 126.423 195.494 113.998C208.568 126.277 209.755 146.145 191.135 152.191C193.884 145.682 196.324 139.984 195.889 131.84C191.031 142.158 187.515 145.485 186.518 150.595ZM162.323 131.644C157.341 133.157 154.392 136.995 144.623 142.88C152.77 142.482 158.189 139.473 164.382 136.074C160.269 155.214 140.385 156.061 126.835 144.31C138.968 140.831 143.917 119.738 162.323 131.644ZM168.585 126.826C151.722 112.817 170.372 101.791 170.066 89.1748C185.329 98.5937 190.463 117.822 173.428 127.467C174.82 120.542 176.072 114.47 174.017 106.576C171.32 117.657 168.54 121.62 168.585 126.826ZM152.526 117.997C149.398 113.834 144.782 112.377 135.908 105.215C139.071 112.733 143.754 116.793 149.069 121.449C129.677 124.139 122.071 105.746 128.473 88.9913C135.897 99.1994 157.408 96.6259 152.526 117.997ZM185.723 169.241C159.396 221.429 226.338 255.118 196.519 316.541C194.509 320.681 192.421 324.452 190.263 327.906C207.005 282.142 161.488 225.236 97.2165 266.047C165.187 226.905 206.533 285.856 187.894 331.532C151.411 384.782 95.953 351.926 43.7126 372.527C58.1759 354.621 61.5266 321.433 44.5798 304.897C58.7608 320.912 56.9137 356.633 39.0383 374.517C26.4447 380.307 14.0768 389.463 2.25372 403.987C-18.0114 428.876 -29.122 460.025 -30.718 488.329C-42.3762 465.952 -70.2539 438.557 -39.2669 405.561C-75.2179 439.382 -41.7118 470.58 -30.9089 493.913C-31.1132 510.9 -30.1759 527.355 -20.8241 538.976C-11.4723 550.597 -0.24133 551.946 -0.24133 551.946C-31.3927 531.601 -33.5639 474.726 -8.74893 428.739C36.1631 384.517 136.042 407.133 134.185 510.523C140.66 410.474 39.6698 381.953 -6.37583 424.525C-2.8868 418.56 1.06341 412.805 5.4831 407.378C57.3162 343.707 117.865 386.921 165.201 360.054C190.692 356.843 220.301 378.646 223.605 400.163C221.673 375.913 192.528 356.897 169.166 357.604C180.709 349.932 191.405 337.669 200.915 318.08C201.728 316.405 202.47 314.75 203.146 313.112C227.736 280.559 288.865 279 313.139 303.548C288.13 274.268 230.695 279.563 205.924 305.302C210.012 291.603 209.599 279.123 207.058 267.389C211.457 203.863 301.171 136.458 368.761 214.222C306.704 135.708 212.06 199.535 205.995 262.989C196.249 225.928 167.729 195.936 198.943 157.438C230.466 118.556 263.1 148.418 295.937 130.555C303.249 126.577 309.165 121.319 313.74 115.323C338.244 102.617 376.12 118.835 384.201 140.773C376.833 115.148 338.68 102.199 316.118 111.961C326.25 96.4575 328.159 77.0049 322.565 61.8249C320.975 57.5121 320.062 54.7794 315.277 48.8892C310.492 42.9989 301.544 38.0728 299.043 37.6765C310.93 46.6909 315.202 55.0576 317.597 65.6536C319.992 76.2497 318.673 112.311 295.155 125.105C272.161 137.612 252.502 127.169 230.537 131.786C274.329 92.4907 239.985 38.2977 209.673 27.1063C240.199 43.7099 272.126 94.9791 225.652 132.868C215.813 135.554 205.882 141.507 195.7 154.069C192.686 157.787 190.164 161.403 188.077 164.932C186.181 148.524 171.75 132.773 151.892 120.437C167.345 130.744 185.672 148.806 185.723 169.241ZM161.856 350.874C163.657 344.443 161.541 338.605 161.915 323.982C156.725 333.066 156.243 341.002 155.645 350.045C137.784 332.394 150.583 310.306 172.639 303.759C168.031 319.28 187.429 339.18 161.856 350.874ZM119.46 360.778C121.261 354.347 119.146 348.509 119.52 333.886C114.33 342.97 113.846 350.907 113.249 359.948C95.387 342.297 108.188 320.21 130.243 313.663C125.637 329.183 145.034 349.084 119.46 360.778ZM340.849 113.26C361.054 121.768 346.41 137.734 350.367 149.719C333.025 145.139 322.529 128.23 336.03 114.053C336.709 121.084 337.273 127.259 341.532 134.214C340.895 122.828 342.406 118.229 340.849 113.26ZM344.058 105.882C360.977 119.822 368.314 99.4378 380.765 97.3736C368.655 84.1456 348.805 82.7048 342.521 101.246C349.064 98.5802 354.792 96.2124 362.931 96.7534C352.552 101.478 349.181 104.952 344.058 105.882ZM374.613 130.865C386.466 149.308 365.359 154.195 361.845 166.317C350.132 152.733 351.037 132.851 370.19 128.794C366.773 134.977 363.748 140.387 363.326 148.533C369.239 138.782 373.086 135.843 374.613 130.865ZM377.495 124.171C394.415 138.112 401.751 117.727 414.204 115.663C402.092 102.434 382.243 100.994 375.959 119.535C382.502 116.87 388.231 114.502 396.368 115.042C385.989 119.767 382.619 123.241 377.495 124.171ZM387.114 141.736C409.034 141.362 402.083 161.882 410.541 171.25C392.827 174.061 376.397 162.829 383.025 144.409C386.486 150.568 389.493 155.988 396.199 160.632C391.018 150.472 390.543 145.654 387.114 141.736ZM226.385 296.559C254.463 298.117 243.662 323.723 253.615 336.493C230.692 338.445 210.715 322.549 220.906 299.597C224.76 307.798 228.105 315.012 236.252 321.577C230.568 308.097 230.408 301.891 226.385 296.559ZM223.439 288.768C226.607 282.888 225.825 276.728 229.4 262.544C222.343 270.268 220.128 277.904 217.562 286.596C204.01 265.453 221.347 246.714 244.301 245.168C236.4 259.299 250.956 282.972 223.439 288.768ZM260.353 288.845C283.4 296.751 268.369 315.565 273.663 328.555C254.087 324.787 241.169 306.83 255.068 290.088C256.353 297.835 257.445 304.637 262.693 312.03C261.126 299.451 262.454 294.237 260.353 288.845ZM261.781 280.547C285.721 285.093 281.979 261.305 293.012 252.641C274.14 246.218 254.023 255.421 257.807 276.849C262.759 270.755 267.076 265.387 275.297 261.564C267.707 271.716 266.277 276.903 261.781 280.547ZM298.158 295.874C296.631 300.852 292.785 303.79 286.871 313.542C287.292 305.396 290.318 299.986 293.734 293.803C274.582 297.86 273.677 317.741 285.389 331.325C288.904 319.204 310.011 314.317 298.158 295.874ZM301.04 289.18C317.96 303.121 325.296 282.736 337.749 280.672C325.638 267.442 305.788 266.002 299.503 284.544C306.047 281.879 311.776 279.511 319.914 280.05C309.534 284.776 306.163 288.25 301.04 289.18ZM315.137 302.283C336.889 299.559 332.181 320.706 341.598 329.112C324.287 333.808 306.747 324.405 311.359 305.379C315.46 311.131 319.032 316.196 326.197 320.095C319.957 310.549 318.968 305.811 315.137 302.283ZM49.2294 353.988C42.811 330.482 23.0755 344.28 10.4486 338.168C12.9595 357.944 30.0539 371.984 47.6495 359.183C40.0009 357.405 33.2815 355.881 26.2399 350.171C38.6935 352.538 43.9806 351.546 49.2294 353.988ZM54.8602 355.143C59.4632 331.215 80.1943 343.466 92.3166 336.407C91.3255 356.318 75.3532 371.623 56.8302 360.201C64.3209 357.846 70.9044 355.813 77.4889 349.58C65.2536 352.893 59.9057 352.308 54.8602 355.143ZM49.9264 323.89C44.7876 323.051 40.4477 325.194 29.085 326.168C36.5724 329.404 42.7635 329.092 49.82 328.775C37.6875 344.138 19.4671 336.129 12.4894 319.606C24.9139 321.834 38.6568 305.086 49.9264 323.89ZM57.6702 322.328C48.715 302.318 70.3155 300.649 75.6075 289.19C85.1511 304.375 81.2771 323.896 61.7333 325.039C66.0382 319.437 69.8406 314.541 71.4772 306.551C64.1694 315.306 59.9262 317.635 57.6702 322.328ZM44.4929 301.09C49.3748 279.718 27.8629 282.293 20.439 272.085C14.0387 288.84 21.6441 307.231 41.0358 304.541C35.7213 299.885 31.0382 295.825 27.8747 288.307C36.7487 295.47 41.3647 296.927 44.4929 301.09ZM163.582 261.12C139.216 260.825 147.056 283.593 137.705 294.052C157.409 297.079 175.609 284.505 168.141 264.067C164.33 270.932 161.016 276.972 153.588 282.171C159.291 270.85 159.791 265.494 163.582 261.12ZM166.241 256.024C144.501 245.016 161.983 228.454 158.531 214.857C177.401 221.287 187.721 240.854 171.646 255.52C171.442 247.671 171.298 240.783 167.117 232.737C166.936 245.412 164.903 250.394 166.241 256.024ZM120.133 259.165C118.765 264.188 120.445 268.728 120.235 280.13C124.231 273.018 124.563 266.829 124.979 259.776C139.002 273.439 129.145 290.73 111.989 295.955C115.494 283.83 100.261 268.425 120.133 259.165ZM119.382 251.301C98.5512 258.132 99.1321 236.474 88.2828 230.023C104.376 222.106 123.391 227.983 122.5 247.541C117.375 242.678 112.9 238.389 105.122 235.932C113.071 244.108 114.949 248.57 119.382 251.301ZM93.7146 266.196C74.318 255.98 71.2727 277.431 59.4994 281.979C74.0443 292.474 93.7727 289.855 96.1601 270.425C90.2966 274.361 85.1679 277.844 77.088 278.967C86.2925 272.233 88.8883 268.147 93.7146 266.196ZM240.433 107.93C230.799 81.5118 209.426 99.2731 194.319 93.4526C199.1 115.956 220.106 130.464 239.114 114.055C230.148 112.745 222.275 111.636 213.629 105.743C228.178 107.272 234.164 105.626 240.433 107.93ZM251.179 105.332C265.336 81.0351 283.228 102.3 299.128 99.2461C290.438 120.548 267.197 131.109 251.392 111.594C260.449 111.891 268.394 112.193 277.946 107.924C263.357 106.854 257.757 104.174 251.179 105.332ZM244.197 70.6558C228.509 52.0101 216.384 72.8166 202.358 72.5648C212.933 89.4653 234.342 95.0366 244.943 76.0344C237.255 77.6304 230.516 79.0646 221.728 76.8347C234.025 73.7597 238.41 70.6425 244.197 70.6558ZM249.792 69.3427C253.183 64.6521 258.284 62.9395 268 54.7998C264.638 63.2183 259.515 67.8258 253.704 73.1075C275.311 75.7029 283.388 55.1102 275.935 36.6201C267.892 48.1139 243.933 45.6913 249.792 69.3427ZM226.156 43.5039C220.956 43.7846 217.176 46.8089 206.286 50.1959C214.294 51.7517 220.274 50.1204 227.099 48.2962C218.541 65.905 199.028 61.9874 188.67 47.3441C201.283 46.8571 211.117 27.5522 226.156 43.5039ZM233.384 40.3175C220.348 22.6924 241.089 16.4313 243.8 4.10536C256.378 16.8911 256.778 36.7895 237.934 42.0948C240.938 35.6999 243.602 30.1037 243.488 21.9476C238.227 32.0645 234.581 35.2502 233.384 40.3175ZM210.373 24.5966C215.255 3.22415 193.743 5.7986 186.319 -4.40945C179.918 12.3449 187.524 30.737 206.915 28.0484C201.601 23.3924 196.918 19.3319 193.755 11.813C202.629 18.976 207.245 20.4331 210.373 24.5966ZM247.065 201.896C273.959 193.679 272.649 221.438 286.393 229.994C265.547 239.729 241.316 231.694 242.969 206.638C249.415 213.008 255.042 218.625 264.952 221.979C254.97 211.286 252.68 205.514 247.065 201.896ZM241.614 195.598C265.446 180.671 243.62 163.468 246.166 147.479C225.152 156.844 215.339 180.411 235.348 195.585C234.762 186.542 234.206 178.611 238.169 168.927C239.703 183.475 242.562 188.987 241.614 195.598ZM306.947 182.564C308.216 188.21 306.122 193.166 305.788 205.837C301.705 197.741 301.645 190.853 301.535 183.001C285.284 197.471 295.365 217.161 314.155 223.82C310.869 210.182 328.55 193.835 306.947 182.564ZM309.603 174.573C332.591 182.657 332.456 158.577 344.664 151.664C326.966 142.485 305.698 148.569 306.227 170.323C312.037 165.039 317.111 160.378 325.812 157.832C316.785 166.73 314.595 171.645 309.603 174.573ZM350.639 200.084C362.492 218.526 341.385 223.413 337.87 235.534C326.157 221.95 327.064 202.068 346.215 198.012C342.799 204.195 339.774 209.605 339.352 217.75C345.265 208 349.112 205.062 350.639 200.084ZM353.521 193.389C370.441 207.33 377.777 186.945 390.229 184.881C378.118 171.652 358.268 170.212 351.985 188.752C358.528 186.088 364.256 183.72 372.394 184.26C362.015 188.985 358.644 192.459 353.521 193.389ZM371.797 214.594C393.717 214.219 386.766 234.739 395.224 244.106C377.512 246.918 361.081 235.686 367.708 217.265C371.169 223.424 374.177 228.844 380.882 233.488C375.703 223.329 375.227 218.511 371.797 214.594ZM133.457 371.638C136.156 375.814 135.941 380.432 139.433 390.749C133.739 385.434 131.643 379.896 129.224 373.598C120.417 390.092 134.394 402.975 151.522 402.765C144.821 392.743 154.224 374.31 133.457 371.638ZM187.17 367.451C198.433 389.06 174.578 392.343 169.466 405.408C157.87 389.192 160.874 367.276 182.483 364.713C178.078 371.214 174.183 376.898 172.897 385.872C180.425 375.674 184.979 372.809 187.17 367.451ZM192.697 358.629C215.684 366.712 215.551 342.632 227.758 335.719C210.06 326.54 188.792 332.625 189.321 354.377C195.131 349.094 200.205 344.434 208.907 341.887C199.879 350.786 197.688 355.701 192.697 358.629ZM215.232 386.99C212.014 391.084 207.368 392.44 198.338 399.406C201.665 391.958 206.436 388.001 211.851 383.464C192.524 380.35 184.516 398.57 190.549 415.461C198.195 405.419 219.644 408.464 215.232 386.99ZM220.373 381.956C227.512 402.683 244.42 389.139 256.115 393.886C252.703 376.279 236.533 364.676 221.487 377.2C228.457 378.347 234.578 379.323 241.235 384.036C229.917 382.64 225.227 383.84 220.373 381.956ZM226.317 401.94C247.617 407.127 235.698 425.22 241.509 436.422C223.661 434.659 210.609 419.633 221.685 403.49C223.473 410.325 225.012 416.329 230.323 422.52C227.883 411.379 228.643 406.599 226.317 401.94ZM70.9996 405.323C97.2912 415.295 97.816 387.51 112.094 379.878C91.9352 368.791 67.2267 375.209 67.2239 400.321C74.0756 394.391 80.0617 389.156 90.1711 386.463C79.5071 396.476 76.8412 402.083 70.9996 405.323ZM65.6778 413.755C87.4587 431.543 63.6552 445.886 64.1841 462.067C44.5032 450.15 37.7116 425.542 59.4589 412.986C57.7488 421.885 56.2072 429.685 58.9278 439.788C62.2678 425.546 65.7925 420.434 65.6778 413.755ZM120.326 441.35C136.649 459.442 148.046 438.229 162.073 437.993C150.92 421.47 129.332 416.644 119.393 436.002C127.022 434.141 133.708 432.473 142.568 434.397C130.384 437.895 126.111 441.164 120.326 441.35ZM112.417 443.893C117.322 467.762 93.4797 464.376 84.9815 475.539C78.2779 456.764 87.1769 436.512 108.66 439.974C102.641 445.017 97.338 449.415 93.6392 457.693C103.675 449.95 108.841 448.443 112.417 443.893ZM130.286 493.844C127.068 497.938 122.421 499.293 113.391 506.26C116.719 498.812 121.491 494.856 126.905 490.318C107.577 487.203 99.5707 505.424 105.602 522.315C113.248 512.272 134.698 515.317 130.286 493.844ZM137.159 492.683C144.298 513.41 161.207 499.864 172.901 504.612C169.489 487.004 153.319 475.402 138.271 487.927C145.242 489.074 151.364 490.048 158.021 494.763C146.702 493.366 142.011 494.567 137.159 492.683ZM135.954 511.912C157.71 514.609 147.954 533.954 155.018 544.414C137.085 544.717 122.39 531.295 131.53 513.985C134.094 520.568 136.315 526.354 142.304 531.892C138.598 521.107 138.801 516.271 135.954 511.912Z" fill="#FFE0BD"/>
</g>
</svg>
