<svg width="28" height="29" viewBox="0 0 28 29" fill="none" xmlns="http://www.w3.org/2000/svg">
<path fill-rule="evenodd" clip-rule="evenodd" d="M18.237 20.4872C16.4327 21.8307 14.1923 22.6258 11.7669 22.6258C5.77921 22.6258 0.921906 17.7735 0.921906 11.7879C0.921906 5.80221 5.77921 0.94931 11.7669 0.94931C17.7545 0.94931 22.6121 5.80221 22.6121 11.7879C22.6121 14.3739 21.7066 16.7485 20.1932 18.6122L26.9873 25.7571C27.5028 26.2997 27.4763 27.1568 26.9344 27.6723C26.3924 28.1878 25.5333 28.1653 25.0178 27.6228L18.237 20.4872ZM11.7669 19.9161C7.27942 19.9161 3.63806 16.2766 3.63806 11.7879C3.63806 7.29846 7.27942 3.65895 11.7669 3.65895C16.2609 3.65895 19.9024 7.29846 19.9024 11.7879C19.9024 16.2766 16.2609 19.9161 11.7669 19.9161Z" fill="#AC3A2A"/>
</svg>
