<svg width="30" height="27" viewBox="0 0 30 27" fill="none" xmlns="http://www.w3.org/2000/svg">
<path fill-rule="evenodd" clip-rule="evenodd" d="M13.2881 2.68767C12.0891 1.71313 10.5101 0.94931 8.5512 0.94931H8.15671C5.72392 1.08149 3.35689 2.53545 1.91036 4.71637C0.595344 6.76512 0.266557 9.21041 1.05557 11.3252C1.97608 13.8366 4.27737 16.0836 6.31565 18.0663L7.63067 19.3881C9.07719 20.842 10.5237 22.2299 11.9045 23.5517C12.6935 24.2786 13.4825 25.0717 14.2715 25.8648L15.1263 26.7239L16.0468 25.9309C18.6769 23.6838 21.3069 21.1725 23.8712 18.4628C23.9565 18.377 24.0419 18.2843 24.1295 18.1891C24.3118 17.9909 24.5039 17.7822 24.7259 17.6037C24.7874 17.5397 24.8494 17.4753 24.9119 17.4104C26.7876 15.4628 29.0825 13.0798 29.5915 10.2017C29.986 7.75645 29.3943 5.37726 27.9478 3.65895C26.567 2.00673 24.5287 1.0815 22.2932 1.0815H21.9644C19.7805 1.1628 18.1439 1.86918 16.9168 2.77003C16.1489 3.33377 15.5414 3.97367 15.0606 4.58419C14.6116 3.95748 14.0208 3.28323 13.2881 2.68767ZM22.0155 3.65323C19.4595 3.76199 18.008 4.99832 17.0809 6.17544L14.9631 8.86434L12.9699 6.0818C12.0238 4.76104 10.5311 3.52105 8.5512 3.52105H8.23499C6.73001 3.62539 5.10284 4.56625 4.06426 6.12175C3.14671 7.56136 2.99131 9.15644 3.46508 10.4263L3.46766 10.4332L3.47021 10.4402C4.14907 12.2923 5.94967 14.1226 8.10882 16.2228L8.12393 16.2375L8.20351 16.3175C8.25287 16.3671 8.17572 16.2896 8.22508 16.3392L9.45381 17.5742C10.8695 18.9972 12.2891 20.3596 13.6655 21.6772C14.2032 22.1734 14.7374 22.6949 15.2576 23.2124C17.5204 21.227 19.7843 19.0398 22.0033 16.6951L22.0254 16.6718L22.048 16.649C22.1039 16.5928 22.1383 16.5552 22.193 16.4954C22.2391 16.4449 22.2996 16.3787 22.3997 16.2722C22.5394 16.1236 22.7323 15.9245 22.9687 15.7208C22.9896 15.6991 23.0105 15.6774 23.0314 15.6556C23.9628 14.688 24.8594 13.7564 25.6104 12.7431C26.3924 11.688 26.8857 10.7104 27.0558 9.77224C27.3396 7.98083 26.8838 6.38842 25.9803 5.31518L25.9774 5.31165L25.9744 5.3081C25.1064 4.26948 23.8052 3.65323 22.2932 3.65323H22.0155Z" fill="#AC3A2A"/>
</svg>
