<svg width="35" height="29" viewBox="0 0 35 29" fill="none" xmlns="http://www.w3.org/2000/svg">
<path fill-rule="evenodd" clip-rule="evenodd" d="M2.57255 0.115917C1.941 -0.0949043 1.25813 0.246157 1.04731 0.877698C0.836492 1.50924 1.17755 2.19211 1.80909 2.40293L5.74093 3.71546C6.60524 4.00398 7.27625 4.69329 7.54142 5.56505L8.9929 10.3369C9.02329 10.4762 9.05961 10.6158 9.10202 10.7552L11.8414 19.7634C12.5105 21.9636 14.5397 23.4675 16.8394 23.4675H26.0803C28.3668 23.4675 30.3876 21.9805 31.0678 19.7975L33.8746 10.7894C34.9226 7.42639 32.4097 4.01135 28.8872 4.01135H14.1C12.4878 4.01135 11.0861 4.72717 10.1411 5.82666L9.84814 4.8634C9.35569 3.24442 8.10953 1.96427 6.50438 1.42844L2.57255 0.115917ZM12.5927 13.947C12.5843 13.8794 12.57 13.8116 12.5495 13.7442L11.3333 9.746C11.0146 8.04541 12.3186 6.42243 14.1 6.42243H28.8872C30.7839 6.42243 32.137 8.26129 31.5727 10.0722L28.7659 19.0803C28.3996 20.2557 27.3115 21.0564 26.0803 21.0564H16.8394C15.6011 21.0564 14.5084 20.2466 14.1482 19.0619L12.5927 13.947ZM18.9027 26.6131C18.9027 27.6333 18.0757 28.4603 17.0555 28.4603C16.0353 28.4603 15.2082 27.6333 15.2082 26.6131C15.2082 25.5928 16.0353 24.7658 17.0555 24.7658C18.0757 24.7658 18.9027 25.5928 18.9027 26.6131ZM25.6111 28.4603C26.6313 28.4603 27.4583 27.6333 27.4583 26.6131C27.4583 25.5928 26.6313 24.7658 25.6111 24.7658C24.5909 24.7658 23.7638 25.5928 23.7638 26.6131C23.7638 27.6333 24.5909 28.4603 25.6111 28.4603Z" fill="#AC3A2A"/>
</svg>
